<?xml version="1.0" encoding="UTF-8" standalone="no"?>
<svg
   viewBox="0 0 24 28"
   version="1.1"
   id="svg4135"
   sodipodi:docname="AccountCropped.svg"
   width="24"
   height="28"
   xmlns:inkscape="http://www.inkscape.org/namespaces/inkscape"
   xmlns:sodipodi="http://sodipodi.sourceforge.net/DTD/sodipodi-0.dtd"
   xmlns="http://www.w3.org/2000/svg"
   xmlns:svg="http://www.w3.org/2000/svg">
  <defs
     id="defs4139" />
  <sodipodi:namedview
     id="namedview4137"
     pagecolor="#ffffff"
     bordercolor="#000000"
     borderopacity="0.25"
     inkscape:showpageshadow="2"
     inkscape:pageopacity="0.0"
     inkscape:pagecheckerboard="0"
     inkscape:deskcolor="#d1d1d1"
     showgrid="false" />
  <title
     id="title4128" />
  <path
     d="M 12,14.000002 A 7,7 0 1 0 5.0000003,7.0000018 7,7 0 0 0 12,14.000002 Z M 12,2.0000018 a 5,5 0 1 1 -4.9999997,5 5,5 0 0 1 4.9999997,-5 z"
     id="path4130-83"
     inkscape:export-filename="AccountCropped.svg"
     inkscape:export-xdpi="96"
     inkscape:export-ydpi="96" />
  <path
     d="m 13,16.000002 h -2 a 11,11 0 0 0 -10.99999973388672,11 1,1 0 0 0 1.00000003388672,1 H 23 a 1,1 0 0 0 1,-1 11,11 0 0 0 -11,-11 z m -10.9399997,10 a 9,9 0 0 1 8.9399997,-8 h 2 a 9,9 0 0 1 8.94,8 z"
     id="path4132-3" />
</svg>
