<?xml version="1.0" encoding="UTF-8" standalone="no"?>
<svg
   viewBox="0 0 768 896"
   version="1.1"
   id="svg4135"
   sodipodi:docname="4092564_profile_about_mobile ui_user_icon.svg"
   width="768"
   height="896"
   xmlns:inkscape="http://www.inkscape.org/namespaces/inkscape"
   xmlns:sodipodi="http://sodipodi.sourceforge.net/DTD/sodipodi-0.dtd"
   xmlns="http://www.w3.org/2000/svg"
   xmlns:svg="http://www.w3.org/2000/svg">
  <defs
     id="defs4139" />
  <sodipodi:namedview
     id="namedview4137"
     pagecolor="#ffffff"
     bordercolor="#000000"
     borderopacity="0.25"
     inkscape:showpageshadow="2"
     inkscape:pageopacity="0.0"
     inkscape:pagecheckerboard="0"
     inkscape:deskcolor="#d1d1d1"
     showgrid="false" />
  <title
     id="title4128" />
  <path
     d="m 75.54229,50.089548 a 7,7 0 1 0 -7,-7 7,7 0 0 0 7,7 z m 0,-12 a 5,5 0 1 1 -5,5 5,5 0 0 1 5,-5 z"
     id="path4130-83"
     inkscape:export-filename="AccountCropped.svg"
     inkscape:export-xdpi="96"
     inkscape:export-ydpi="96" />
  <path
     d="m 76.54229,52.089548 h -2 a 11,11 0 0 0 -11,11 1,1 0 0 0 1,1 h 22 a 1,1 0 0 0 1,-1 11,11 0 0 0 -11,-11 z m -10.94,10 a 9,9 0 0 1 8.94,-8 h 2 a 9,9 0 0 1 8.94,8 z"
     id="path4132-3" />
</svg>
