<?xml version="1.0" encoding="UTF-8" standalone="no"?>
<svg
   version="1.1"
   width="592.61414"
   height="144.04068"
   viewBox="0 0 592.61414 144.04068"
   id="svg47"
   sodipodi:docname="OuterBlueInnerWhiteBlackText2.svg"
   inkscape:version="1.2.2 (732a01da63, 2022-12-09)"
   xml:space="preserve"
   xmlns:inkscape="http://www.inkscape.org/namespaces/inkscape"
   xmlns:sodipodi="http://sodipodi.sourceforge.net/DTD/sodipodi-0.dtd"
   xmlns="http://www.w3.org/2000/svg"
   xmlns:svg="http://www.w3.org/2000/svg"><defs
     id="defs51"><inkscape:path-effect
       effect="powerstroke"
       id="path-effect3361"
       is_visible="true"
       lpeversion="1"
       offset_points="0.20755709,0.96327435 | 1.5,8.1551301 | 2.8,8.1551301"
       not_jump="false"
       sort_points="true"
       interpolator_type="CentripetalCatmullRom"
       interpolator_beta="0.2"
       start_linecap_type="butt"
       linejoin_type="round"
       miter_limit="4"
       scale_width="1"
       end_linecap_type="round" /></defs><sodipodi:namedview
     id="namedview49"
     pagecolor="#ffffff"
     bordercolor="#000000"
     borderopacity="0.25"
     inkscape:showpageshadow="2"
     inkscape:pageopacity="0.0"
     inkscape:pagecheckerboard="0"
     inkscape:deskcolor="#d1d1d1"
     showgrid="false"
     inkscape:zoom="0.79728021"
     inkscape:cx="153.64736"
     inkscape:cy="-44.526378"
     inkscape:window-width="1920"
     inkscape:window-height="991"
     inkscape:window-x="-9"
     inkscape:window-y="-9"
     inkscape:window-maximized="1"
     inkscape:current-layer="svg47" /><text
     xml:space="preserve"
     style="font-style:normal;font-variant:normal;font-weight:normal;font-stretch:normal;font-size:118.641px;font-family:'Roboto Mono';-inkscape-font-specification:'Roboto Mono, @wght=700';font-variant-ligatures:normal;font-variant-caps:normal;font-variant-numeric:normal;font-variant-east-asian:normal;font-variation-settings:'wght' 700;fill:#000000;fill-opacity:1;stroke:#000000;stroke-width:1.24012;stroke-linecap:square;stroke-linejoin:bevel"
     x="172.30756"
     y="142.26202"
     id="text2612"><tspan
       sodipodi:role="line"
       id="tspan2610"
       x="172.30756"
       y="142.26202"
       style="stroke-width:1.24012">Haven</tspan></text><text
     xml:space="preserve"
     style="font-style:normal;font-variant:normal;font-weight:normal;font-stretch:normal;font-size:65.694px;font-family:'Roboto Mono';-inkscape-font-specification:'Roboto Mono, @wght=700';font-variant-ligatures:normal;font-variant-caps:normal;font-variant-numeric:normal;font-variant-east-asian:normal;font-variation-settings:'wght' 700;fill:#000000;fill-opacity:1;stroke:#000000;stroke-width:0.686681;stroke-linecap:square;stroke-linejoin:bevel"
     x="151.99376"
     y="50.58448"
     id="text2612-9"><tspan
       sodipodi:role="line"
       id="tspan2610-5"
       x="151.99376"
       y="50.58448"
       style="stroke-width:0.686681">Handcrafted</tspan></text><path
     d="m 10.732589,90.762587 1.478446,1.849334 -0.738719,-2.404147 c -0.184932,-1.109589 -1.4794705,0.18494 -0.739727,0.554813 m 1.663377,-1.108591 c 0.554795,0.924675 1.109608,1.849334 1.109608,2.772985 0,1.294547 1.109589,1.849341 2.033248,2.218198 -1.294529,-1.479471 -2.033248,-5.546994 -3.142856,-4.991183 M 83.391188,11.263465 c 3.142857,0 6.100778,-0.369868 9.429585,0.36885 8.135047,2.033254 14.975577,6.100779 19.597897,11.832706 l 12.94128,20.707491 c 0.55482,5.177126 1.66441,10.908038 1.47948,17.19375 1.29455,0 1.10961,-1.849336 2.58805,-2.218188 -1.47946,3.697658 -2.21818,8.319983 -2.58805,13.681027 -0.92466,-2.957922 0,-7.395315 0.18493,-9.798436 -1.29453,2.033254 -2.03324,0.5548 -2.03426,-0.369868 0.18493,-1.479468 -0.5548,-1.294535 -1.10961,-1.849336 -2.03325,-1.849336 -3.32778,-3.882591 -4.80625,-7.025447 0.92468,-2.403123 1.10962,-5.915846 -1.84933,-7.765184 -0.92466,-0.554799 -2.03325,-1.479468 -2.58805,-2.95792 -0.73974,-2.033256 -2.03327,-4.437392 -1.6644,-7.580249 0.18493,-0.924669 -2.773,2.033255 -4.43637,0.739735 -7.21039,-4.992193 -14.420781,-10.723105 -23.110632,-15.530364 -4.622325,0 -7.950114,-1.664403 -9.614518,-3.697656 -1.47947,-1.849336 -0.369867,-4.252458 1.849337,-4.437393 1.294536,0 2.772988,-0.369867 3.882591,0.369868 0.184934,-0.739735 0.924669,-1.664403 1.84832,-1.663386 M 65.087837,7.011006 65.457703,7.1959389 c 1.849337,0.3698669 2.77299,2.9579241 4.80726,2.0332549 0,1.2945362 0.184934,2.5880552 -0.184933,3.5127242 -0.554801,1.479469 -2.218189,1.479469 -3.512725,1.479469 -12.387508,-0.739735 -19.597886,4.43739 -27.178138,8.873767 -2.033258,1.294537 -4.252455,2.218188 -5.915849,3.882591 -7.950106,7.395314 -16.639957,14.235826 -18.673215,27.917871 l -1.664401,15.160496 c -0.184941,1.664403 -2.03325,3.327789 -1.663386,5.361044 l 1.293513,9.059717 c -1.29453,-1.294534 -2.03324,0.369868 -1.663377,1.109602 0.184932,0.554801 0.924658,2.403119 2.03325,0.738716 1.479461,2.772994 2.957924,8.135048 4.99219,10.539197 6.285713,7.395312 14.420768,14.050892 21.076344,20.706472 1.664402,-0.36986 2.957925,-0.36986 3.327788,-1.47946 0.554804,1.1096 -0.554795,2.21818 -1.478446,2.40413 2.957917,1.84934 6.285705,3.51273 10.723098,3.88259 5.730912,0.36987 11.092971,1.29452 16.084148,2.58806 2.588056,-0.73974 5.177127,-1.10961 7.950116,-1.29454 0.924668,0 1.47947,-1.47947 2.589072,-1.84831 l 0.184933,-1.84934 c 1.109603,1.66441 0.924668,-0.55481 0.184934,-1.66339 1.294536,1.10961 1.664403,2.03326 2.218188,2.77299 0,-0.5548 1.47947,-2.58806 1.47947,-0.18494 l 0.368851,-2.40312 c 0.5548,-0.36986 0.739734,2.03326 1.294535,0.36987 0.554801,-1.6644 1.664403,-0.36987 2.772989,-0.92467 -0.369867,0.73973 -0.184934,2.21819 1.109603,1.29454 l 1.479468,-1.29454 c 0.924668,2.21819 2.403122,1.29454 3.142857,0.92467 8.13505,-5.17713 16.2701,-11.2779 24.03427,-17.37971 l -0.18492,2.40415 0.92466,-2.95793 c 0.92466,0.92466 1.66439,0.18493 2.03427,-0.36987 1.10959,-1.849337 2.58805,-3.697652 4.99118,-5.362066 -2.95793,7.950126 -6.47065,14.235836 -10.90805,19.412976 l -1.84831,2.21817 c 0,1.29455 -0.36987,2.95794 -1.84934,3.14287 -0.73974,0.18493 -2.21819,-0.36988 -3.32779,0.73974 -0.5548,0.73973 1.29454,2.21819 -0.18493,1.1096 -1.29455,-0.92468 -2.58806,0 -4.06753,0.36987 -1.10961,0.36986 0.73974,1.47944 1.1096,2.21819 0.36987,0.73972 0.73974,1.47946 0.5548,2.40414 l -2.03427,-2.21921 c -2.403126,1.29453 -3.882592,3.69764 -5.91585,5.54698 -0.92467,0.73974 -0.554802,2.03326 -0.554802,3.14286 -1.294536,0 -2.772988,-0.36987 -3.512723,0.36988 -0.5548,0.73973 -0.369867,1.84931 -0.369867,2.95792 -1.849337,-0.18494 -2.033255,-2.95792 -3.697658,-2.40313 -1.664402,0.36987 -3.512724,0.5548 -4.992192,1.47845 1.109602,2.2182 -1.849338,0.92468 -1.478454,1.29454 -2.772989,-1.66441 -5.177127,-2.95792 -8.135048,-1.84934 -6.285713,-2.03325 -14.050896,-1.1096 -19.782823,-0.36986 0,-0.92468 0.184934,-1.84934 -0.184934,-2.03326 -0.369866,0.92468 -1.479468,0.5548 -1.29352,0.5548 -3.512719,-2.40312 -7.025448,-3.88259 -10.723099,-5.91685 -3.327797,0.36987 -6.470653,-1.29454 -7.395311,-2.2182 -2.588062,-2.40312 -5.547003,-1.10961 -7.950124,-1.66441 -5.177121,-1.29453 -7.025449,-6.65558 -7.580243,-10.35322 -0.369872,-1.84934 -1.849343,-2.58807 -2.404138,-2.40313 -2.40312,-7.76518 -6.1007805,-14.790637 -9.0586955,-22.00102 -0.739734,-1.849335 -0.554804,-3.697656 -0.554804,-5.731925 0.924667,0.369867 1.849333,0.184934 1.664401,-1.108587 C 7.0349295,75.788039 4.8167345,71.165714 2.4125944,66.728322 3.7071445,60.442609 3.8920745,53.047295 6.8499985,47.500301 9.4380505,42.508108 14.2453,39.920052 17.573097,35.667595 c 1.109599,-1.47947 1.109599,-3.512724 2.21818,-4.80726 3.697661,-3.697656 7.395312,-7.580247 11.462844,-10.908038 1.849334,-1.47947 4.067523,0 6.840517,-0.554801 0.924667,-3.327788 4.622318,-6.285711 8.135047,-5.361044 1.47947,0.369867 4.43739,-3.512722 5.362057,-3.882589 1.47947,-0.5548013 0.739735,1.479469 0.739735,2.772988 3.512725,-2.772988 8.319984,-4.252458 12.75636,-5.915845"
     fill="#233565"
     fill-rule="nonzero"
     stroke="none"
     stroke-width="1.01612"
     stroke-linecap="butt"
     stroke-linejoin="miter"
     stroke-miterlimit="10"
     stroke-dasharray="none"
     stroke-dashoffset="0"
     font-family="none"
     font-weight="none"
     font-size="none"
     text-anchor="none"
     style="mix-blend-mode:normal"
     data-fill-palette-color="tertiary"
     id="path426-7" /><path
     fill="#8bd8bc"
     d="m 78.576338,97.867267 c -2.632165,-0.635337 -5.355095,0.99842 -6.081211,3.630593 l -0.09077,0.27234 c -1.089173,4.8105 -3.99363,8.98567 -8.078025,11.7086 0.635349,0.27234 1.361465,0.4538 1.996814,0.63534 7.079617,1.63376 14.159236,-2.72292 15.974523,-9.62102 l 0.09077,-0.36305 c 0.726116,-2.90446 -0.998406,-5.62738 -3.812101,-6.262746 z"
     data-fill-palette-color="accent"
     id="path430-3"
     style="fill:#233565;fill-opacity:1;stroke-width:0.907643" /><path
     fill="#8bd8bc"
     d="m 72.404365,86.340198 c 1.2707,-0.18137 2.632165,-0.18137 4.265922,0 l 1.089173,0.181656 0.181541,-1.90604 v -0.09069 c 0,0 0,-0.272341 0.181541,-0.907649 l 0.363057,-1.179928 -1.179935,-0.181655 c -1.179938,-0.18137 -2.269108,-0.27234 -3.267517,-0.27234 -2.178343,0 -4.17516,0.363053 -6.081208,1.179932 -5.536625,2.359865 -7.07962,8.441096 -8.441085,13.70542 -0.453822,1.633757 -0.816878,3.267516 -1.361465,4.628986 -1.452227,3.90285 -4.538217,6.0812 -8.441082,6.0812 -0.998408,0 -2.087578,-0.18165 -3.176751,-0.45382 -4.719744,-1.2707 -7.98726,-5.53664 -10.074839,-8.713379 -3.902868,-7.896501 -0.998408,-16.791393 2.35987,-25.232489 3.449047,-8.804122 7.533442,-17.789813 15.792994,-22.691084 6.262738,-3.721338 14.976115,-3.993621 25.59554,-0.726107 4.901273,1.452244 9.167198,3.449054 12.616242,5.89969 l 0.907643,0.635337 2.178343,-3.721338 -0.816878,-0.544567 C 90.648019,48.945332 85.111394,46.494697 78.304069,44.77017 69.136874,42.410305 60.514262,42.864129 53.52541,46.222414 45.265856,50.216035 40.546112,58.657131 37.006301,66.462861 31.9235,77.717618 27.294519,89.607741 32.468087,100.13642 c 0.09077,0.18165 0.09077,0.27234 0.181541,0.36305 0.09077,0.0907 0.181541,0.27234 0.272283,0.36306 3.358279,5.08281 9.076431,11.164 16.700634,11.164 0.544587,0 1.089173,0 1.63376,-0.0907 8.894903,-0.99838 11.073247,-8.80411 12.979298,-15.61145 l 0.363057,-1.270703 c 1.45223,-5.355095 3.902865,-7.987243 7.805733,-8.713379 z"
     data-fill-palette-color="accent"
     id="path432-8"
     style="fill:#233565;fill-opacity:1;stroke-width:0.907643" /><path
     fill="#8bd8bc"
     d="m 108.34703,63.467603 c -1.08917,-1.724528 -2.45062,-3.358285 -4.08438,-4.992042 l -1.17994,-1.179932 -1.72453,4.356676 0.5446,0.635365 c 2.99522,3.176743 4.81049,6.807311 5.53661,10.800961 0.72611,4.265905 -0.72612,8.713351 -3.99362,11.980865 -1.90606,1.906068 -4.356695,2.813717 -7.624208,2.813717 -1.089174,0 -2.359874,-0.09069 -3.630574,-0.363054 l -0.816881,-0.181655 -0.363057,0.816878 c -0.272283,0.635338 -0.635348,1.361474 -0.907643,1.906041 l -0.726114,1.270703 1.45223,0.27234 c 1.633757,0.363054 3.267514,0.453824 4.719744,0.453824 5.445863,0 9.802553,-2.178352 13.070063,-6.444285 5.17356,-6.807311 3.5398,-16.246798 -0.27229,-22.146488 z"
     data-fill-palette-color="accent"
     id="path434-1"
     style="fill:#233565;fill-opacity:1;stroke-width:0.907643" /><path
     fill="#8bd8bc"
     d="m 89.831115,87.066335 13.160835,-33.492044 1.08917,-2.813689 4.71974,-11.890137 c 0.0908,-0.09077 0,-0.272283 -0.0908,-0.363057 L 107.34863,37.509 c -0.18155,-0.09077 -0.36306,-0.09077 -0.45383,0.181541 l -5.62739,9.439493 -1.361456,2.359865 -19.332802,32.312083 c -0.272283,0.453824 -0.726114,1.361473 -0.998405,2.178352 -0.181542,0.635366 -0.36306,1.179932 -0.453822,1.633757 l -0.181541,0.907649 -1.361465,6.898081 c 0,0 0,0 0,0.09068 -0.09077,0.907649 0.453821,2.087581 1.179935,2.359865 l 2.90446,1.633757 c 0.726113,0.363053 1.724521,0.181655 2.359873,-0.544567 0,0 0,0 0,-0.09069 l 3.449043,-5.355095 c 0.181542,-0.181655 0.453822,-0.726108 0.816879,-1.361474 0.453821,-0.816878 0.907643,-1.815269 1.179938,-2.541406 0.181541,-0.09069 0.272283,-0.363054 0.363057,-0.544566 z"
     data-fill-palette-color="accent"
     id="path436-1"
     style="fill:#233565;fill-opacity:1;stroke-width:0.907643" /><circle
     fill="#8bd8bc"
     cx="46.6273"
     cy="93.056801"
     r="5.3550954"
     data-fill-palette-color="accent"
     id="circle440-0"
     style="fill:#233565;fill-opacity:1;stroke-width:0.907643" /><circle
     fill="#8bd8bc"
     cx="51.891632"
     cy="75.266945"
     r="5.3550954"
     data-fill-palette-color="accent"
     id="circle442-2"
     style="fill:#233565;fill-opacity:1;stroke-width:0.907643" /><circle
     fill="#8bd8bc"
     cx="62.238762"
     cy="59.927814"
     r="5.3550954"
     data-fill-palette-color="accent"
     id="circle444-4"
     style="fill:#233565;fill-opacity:1;stroke-width:0.907643" /><circle
     fill="#8bd8bc"
     cx="79.574745"
     cy="59.927814"
     r="5.3550954"
     data-fill-palette-color="accent"
     id="circle446-8"
     style="fill:#233565;fill-opacity:1;stroke-width:0.907643" /></svg>
