<?xml version="1.0" encoding="UTF-8" standalone="no"?>
<svg
   version="1.1"
   width="592.61414"
   height="144.04068"
   viewBox="0 0 592.61414 144.04068"
   id="svg47"
   sodipodi:docname="OuterWhiteInnerGrayTextWhite2.svg"
   inkscape:version="1.2.2 (732a01da63, 2022-12-09)"
   xml:space="preserve"
   xmlns:inkscape="http://www.inkscape.org/namespaces/inkscape"
   xmlns:sodipodi="http://sodipodi.sourceforge.net/DTD/sodipodi-0.dtd"
   xmlns="http://www.w3.org/2000/svg"
   xmlns:svg="http://www.w3.org/2000/svg"><defs
     id="defs51"><inkscape:path-effect
       effect="powerstroke"
       id="path-effect3361"
       is_visible="true"
       lpeversion="1"
       offset_points="0.20755709,0.96327435 | 1.5,8.1551301 | 2.8,8.1551301"
       not_jump="false"
       sort_points="true"
       interpolator_type="CentripetalCatmullRom"
       interpolator_beta="0.2"
       start_linecap_type="butt"
       linejoin_type="round"
       miter_limit="4"
       scale_width="1"
       end_linecap_type="round" /></defs><sodipodi:namedview
     id="namedview49"
     pagecolor="#ffffff"
     bordercolor="#000000"
     borderopacity="0.25"
     inkscape:showpageshadow="2"
     inkscape:pageopacity="0.0"
     inkscape:pagecheckerboard="0"
     inkscape:deskcolor="#d1d1d1"
     showgrid="false"
     inkscape:zoom="0.56376224"
     inkscape:cx="-424.82448"
     inkscape:cy="-98.445756"
     inkscape:window-width="1920"
     inkscape:window-height="991"
     inkscape:window-x="-9"
     inkscape:window-y="-9"
     inkscape:window-maximized="1"
     inkscape:current-layer="svg47" /><text
     xml:space="preserve"
     style="font-style:normal;font-variant:normal;font-weight:normal;font-stretch:normal;font-size:118.641px;font-family:'Roboto Mono';-inkscape-font-specification:'Roboto Mono, @wght=700';font-variant-ligatures:normal;font-variant-caps:normal;font-variant-numeric:normal;font-variant-east-asian:normal;font-variation-settings:'wght' 700;fill:#ffffff;fill-opacity:1;stroke:#ffffff;stroke-width:1.24012;stroke-linecap:square;stroke-linejoin:bevel"
     x="200.49908"
     y="142.26202"
     id="text2612"><tspan
       sodipodi:role="line"
       id="tspan2610"
       x="200.49908"
       y="142.26202"
       style="stroke-width:1.24012;fill:#ffffff;stroke:#ffffff">Haven</tspan></text><text
     xml:space="preserve"
     style="font-style:normal;font-variant:normal;font-weight:normal;font-stretch:normal;font-size:55.6466px;font-family:'Roboto Mono';-inkscape-font-specification:'Roboto Mono, @wght=411';font-variant-ligatures:normal;font-variant-caps:normal;font-variant-numeric:normal;font-variant-east-asian:normal;font-variation-settings:'wght' 411;fill:#ffffff;fill-opacity:1;stroke:#ffffff;stroke-width:0.581659;stroke-linecap:square;stroke-linejoin:bevel"
     x="187.16936"
     y="46.895958"
     id="text2612-9"><tspan
       sodipodi:role="line"
       id="tspan2610-5"
       x="187.16936"
       y="46.895958"
       style="font-style:normal;font-variant:normal;font-weight:normal;font-stretch:normal;font-size:55.6466px;font-family:'Roboto Mono';-inkscape-font-specification:'Roboto Mono, @wght=411';font-variant-ligatures:normal;font-variant-caps:normal;font-variant-numeric:normal;font-variant-east-asian:normal;font-variation-settings:'wght' 411;stroke-width:0.581659;fill:#ffffff;stroke:#ffffff">Handcrafted</tspan></text><path
     fill="#8bd8bc"
     d="m 97.501641,112.25971 c -4.813031,-1.16173 -9.792029,1.82566 -11.119764,6.63871 l -0.165974,0.49799 c -1.991606,8.7962 -7.302535,16.43069 -14.771028,21.40969 1.161761,0.49799 2.489495,0.8298 3.651264,1.16175 12.945396,2.9874 25.890791,-4.97898 29.210121,-17.59246 l 0.16597,-0.66386 c 1.32775,-5.31094 -1.82561,-10.28992 -6.970589,-11.45171 z"
     data-fill-palette-color="accent"
     id="path430-3"
     style="fill:#ffffff;fill-opacity:1;stroke-width:1.65967" /><path
     fill="#8bd8bc"
     d="m 84.480759,89.234866 c 2.540762,-0.362648 5.262996,-0.362648 8.529682,0 l 2.177799,0.36322 0.362982,-3.811114 v -0.181335 c 0,0 0,-0.544543 0.362992,-1.814837 l 0.725923,-2.359258 -2.359267,-0.363217 c -2.359268,-0.362649 -4.537057,-0.544542 -6.533375,-0.544542 -4.355578,0 -8.348203,0.725921 -12.159327,2.359265 -11.070445,4.718534 -14.155653,16.87791 -16.877893,27.403892 -0.907414,3.26668 -1.633341,6.53337 -2.722239,9.25562 -2.903718,7.80372 -9.074134,12.15932 -16.877885,12.15932 -1.99631,0 -4.174098,-0.36321 -6.351891,-0.90741 C 23.321165,128.25371 16.787789,119.724 12.613689,113.37213 4.8099324,97.583128 10.617379,79.797858 17.332233,62.919946 24.228579,45.316165 32.395298,27.349339 48.910215,17.549282 c 12.5223,-7.44079 29.944641,-7.9852169 51.178095,-1.451846 9.80007,2.903752 18.32976,6.89636 25.2261,11.796389 l 1.81482,1.270352 4.35558,-7.440789 -1.63334,-1.088859 C 120.95882,14.464092 109.88838,9.5640651 96.277177,6.1158841 77.947439,1.3973503 60.706586,2.3047691 46.732424,9.0196361 30.217504,17.004853 20.780408,33.882766 13.702581,49.490269 3.5395561,71.994077 -5.7160595,95.768298 4.6284536,116.82031 c 0.1814942,0.36321 0.1814942,0.54455 0.3629902,0.72592 0.1814941,0.18135 0.3629902,0.54454 0.5444276,0.72593 6.7148566,10.16305 18.1482616,22.32235 33.3928016,22.32235 1.088898,0 2.177793,0 3.266692,-0.18136 17.785296,-1.99625 22.14088,-17.60375 25.952017,-31.21498 l 0.725926,-2.54076 c 2.903726,-10.707482 7.80375,-15.97044 15.607508,-17.422344 z"
     data-fill-palette-color="accent"
     id="path432-8"
     style="fill:#ffffff;fill-opacity:1;stroke-width:1.81483" /><path
     fill="#8bd8bc"
     d="m 156.34787,43.501271 c -2.17779,-3.448181 -4.89999,-6.714867 -8.16669,-9.981553 l -2.35928,-2.359266 -3.44819,8.711144 1.08893,1.270408 c 5.98892,6.351875 9.61854,13.61117 11.07041,21.596446 1.45185,8.529647 -1.45187,17.422285 -7.98521,23.955656 -3.81116,3.81117 -8.71118,5.626012 -15.24456,5.626012 -2.17779,0 -4.71855,-0.18134 -7.2593,-0.72593 l -1.63335,-0.363216 -0.72593,1.633346 c -0.54443,1.27035 -1.27037,2.72225 -1.81483,3.81111 l -1.45185,2.54077 2.90371,0.54454 c 3.26669,0.725912 6.53338,0.907422 9.43711,0.907422 10.88896,0 19.60013,-4.355612 26.1335,-12.885312 10.34449,-13.611171 7.0778,-32.485359 -0.54445,-44.281749 z"
     data-fill-palette-color="accent"
     id="path434-1"
     style="fill:#ffffff;fill-opacity:1;stroke-width:1.81483" /><path
     fill="#8bd8bc"
     d="m 117.04543,92.744729 23.8681,-60.476578 1.97528,-5.080679 8.55957,-21.4700182 c 0.16468,-0.1639042 0,-0.4916616 -0.16466,-0.6555726 l -2.46905,-1.8028256 c -0.32926,-0.1639029 -0.65844,-0.1639029 -0.82305,0.3278085 l -10.20567,17.0448909 -2.4691,4.261208 -35.06138,58.345925 c -0.493804,0.819469 -1.316856,2.45841 -1.81068,3.933449 -0.329238,1.147279 -0.658429,2.130603 -0.823034,2.950073 l -0.329247,1.638943 -2.469102,12.455857 c 0,0 0,0 0,0.16374 -0.164624,1.63894 0.823033,3.76956 2.139892,4.26122 l 5.267441,2.95007 c 1.31687,0.65556 3.12754,0.32802 4.27979,-0.98333 0,0 0,0 0,-0.16375 l 6.25509,-9.6697 c 0.32924,-0.32802 0.82303,-1.311121 1.48146,-2.458402 0.82304,-1.475042 1.64608,-3.277844 2.13991,-4.589025 0.32923,-0.163754 0.4938,-0.655567 0.65843,-0.983323 z"
     data-fill-palette-color="accent"
     id="path436-1"
     style="fill:#ffffff;fill-opacity:1;stroke-width:1.6425" /><circle
     fill="#8bd8bc"
     cx="32.939705"
     cy="102.66467"
     r="10.707476"
     data-fill-palette-color="accent"
     id="circle440-0"
     style="fill:#ffffff;fill-opacity:1;stroke-width:1.81483" /><circle
     fill="#8bd8bc"
     cx="43.465698"
     cy="67.093979"
     r="10.707476"
     data-fill-palette-color="accent"
     id="circle442-2"
     style="fill:#ffffff;fill-opacity:1;stroke-width:1.81483" /><circle
     fill="#8bd8bc"
     cx="64.154716"
     cy="36.423489"
     r="10.707476"
     data-fill-palette-color="accent"
     id="circle444-4"
     style="fill:#ffffff;fill-opacity:1;stroke-width:1.81483" /><circle
     fill="#8bd8bc"
     cx="98.817879"
     cy="36.423489"
     r="10.707476"
     data-fill-palette-color="accent"
     id="circle446-8"
     style="fill:#ffffff;fill-opacity:1;stroke-width:1.81483" /></svg>
